<mxfile host="Electron" agent="Mozilla/5.0 (Windows NT 10.0; Win64; x64) AppleWebKit/537.36 (KHTML, like Gecko) draw.io/25.0.2 Chrome/128.0.6613.186 Electron/32.2.5 Safari/537.36" version="25.0.2">
  <diagram name="Page-1" id="ikcZJAxkVX7dlc74_a1n">
    <mxGraphModel dx="1450" dy="669" grid="1" gridSize="10" guides="1" tooltips="1" connect="1" arrows="1" fold="1" page="0" pageScale="1" pageWidth="827" pageHeight="1169" math="0" shadow="0">
      <root>
        <mxCell id="0" />
        <mxCell id="1" parent="0" />
        <mxCell id="P_v-eNA2GRJJsNugdSsN-3" value="" style="edgeStyle=orthogonalEdgeStyle;rounded=0;orthogonalLoop=1;jettySize=auto;html=1;" parent="1" source="P_v-eNA2GRJJsNugdSsN-1" target="P_v-eNA2GRJJsNugdSsN-2" edge="1">
          <mxGeometry relative="1" as="geometry">
            <Array as="points">
              <mxPoint x="170" y="320" />
              <mxPoint x="170" y="320" />
            </Array>
          </mxGeometry>
        </mxCell>
        <mxCell id="P_v-eNA2GRJJsNugdSsN-1" value="Client" style="shape=umlActor;verticalLabelPosition=bottom;verticalAlign=top;html=1;outlineConnect=0;" parent="1" vertex="1">
          <mxGeometry x="90" y="290" width="30" height="60" as="geometry" />
        </mxCell>
        <mxCell id="P_v-eNA2GRJJsNugdSsN-5" value="" style="edgeStyle=orthogonalEdgeStyle;rounded=0;orthogonalLoop=1;jettySize=auto;html=1;" parent="1" source="P_v-eNA2GRJJsNugdSsN-2" target="P_v-eNA2GRJJsNugdSsN-4" edge="1">
          <mxGeometry relative="1" as="geometry" />
        </mxCell>
        <mxCell id="P_v-eNA2GRJJsNugdSsN-2" value="Scan de la carte" style="rounded=1;whiteSpace=wrap;html=1;" parent="1" vertex="1">
          <mxGeometry x="200" y="290" width="120" height="60" as="geometry" />
        </mxCell>
        <mxCell id="P_v-eNA2GRJJsNugdSsN-8" value="" style="edgeStyle=orthogonalEdgeStyle;rounded=0;orthogonalLoop=1;jettySize=auto;html=1;startArrow=classic;startFill=1;" parent="1" source="P_v-eNA2GRJJsNugdSsN-4" target="P_v-eNA2GRJJsNugdSsN-7" edge="1">
          <mxGeometry relative="1" as="geometry" />
        </mxCell>
        <mxCell id="P_v-eNA2GRJJsNugdSsN-4" value="Lecture/Ecriture NFC" style="shape=tape;whiteSpace=wrap;html=1;" parent="1" vertex="1">
          <mxGeometry x="400" y="270" width="120" height="100" as="geometry" />
        </mxCell>
        <mxCell id="P_v-eNA2GRJJsNugdSsN-7" value="Python-NFC" style="shape=cube;whiteSpace=wrap;html=1;boundedLbl=1;backgroundOutline=1;darkOpacity=0.05;darkOpacity2=0.1;" parent="1" vertex="1">
          <mxGeometry x="600" y="280" width="120" height="80" as="geometry" />
        </mxCell>
        <mxCell id="P_v-eNA2GRJJsNugdSsN-14" value="" style="edgeStyle=orthogonalEdgeStyle;rounded=0;orthogonalLoop=1;jettySize=auto;html=1;startArrow=classic;startFill=1;dashed=1;" parent="1" target="P_v-eNA2GRJJsNugdSsN-7" edge="1">
          <mxGeometry relative="1" as="geometry">
            <mxPoint x="660" y="440" as="sourcePoint" />
          </mxGeometry>
        </mxCell>
        <mxCell id="P_v-eNA2GRJJsNugdSsN-24" style="edgeStyle=orthogonalEdgeStyle;rounded=0;orthogonalLoop=1;jettySize=auto;html=1;exitX=0.96;exitY=0.7;exitDx=0;exitDy=0;exitPerimeter=0;" parent="1" source="P_v-eNA2GRJJsNugdSsN-25" target="P_v-eNA2GRJJsNugdSsN-23" edge="1">
          <mxGeometry relative="1" as="geometry">
            <mxPoint x="686" y="530" as="sourcePoint" />
          </mxGeometry>
        </mxCell>
        <mxCell id="P_v-eNA2GRJJsNugdSsN-19" value="" style="edgeStyle=orthogonalEdgeStyle;rounded=0;orthogonalLoop=1;jettySize=auto;html=1;startArrow=none;startFill=0;endArrow=classic;endFill=1;" parent="1" source="P_v-eNA2GRJJsNugdSsN-15" target="P_v-eNA2GRJJsNugdSsN-18" edge="1">
          <mxGeometry relative="1" as="geometry" />
        </mxCell>
        <mxCell id="P_v-eNA2GRJJsNugdSsN-15" value="Python-TPE" style="shape=cube;whiteSpace=wrap;html=1;boundedLbl=1;backgroundOutline=1;darkOpacity=0.05;darkOpacity2=0.1;" parent="1" vertex="1">
          <mxGeometry x="-110" y="610" width="120" height="80" as="geometry" />
        </mxCell>
        <mxCell id="55i1PIQycsP7EGcLQVo4-6" value="" style="edgeStyle=orthogonalEdgeStyle;rounded=0;orthogonalLoop=1;jettySize=auto;html=1;" parent="1" source="P_v-eNA2GRJJsNugdSsN-18" target="P_v-eNA2GRJJsNugdSsN-20" edge="1">
          <mxGeometry relative="1" as="geometry" />
        </mxCell>
        <mxCell id="P_v-eNA2GRJJsNugdSsN-18" value="TPE" style="shape=tape;whiteSpace=wrap;html=1;" parent="1" vertex="1">
          <mxGeometry x="-110" y="435" width="120" height="100" as="geometry" />
        </mxCell>
        <mxCell id="55i1PIQycsP7EGcLQVo4-5" value="" style="edgeStyle=orthogonalEdgeStyle;rounded=0;orthogonalLoop=1;jettySize=auto;html=1;" parent="1" source="P_v-eNA2GRJJsNugdSsN-20" target="P_v-eNA2GRJJsNugdSsN-1" edge="1">
          <mxGeometry relative="1" as="geometry" />
        </mxCell>
        <mxCell id="P_v-eNA2GRJJsNugdSsN-20" value="Procède au paiement" style="rounded=1;whiteSpace=wrap;html=1;" parent="1" vertex="1">
          <mxGeometry x="-110" y="290" width="120" height="60" as="geometry" />
        </mxCell>
        <mxCell id="P_v-eNA2GRJJsNugdSsN-23" value="Interface Web" style="rounded=1;whiteSpace=wrap;html=1;" parent="1" vertex="1">
          <mxGeometry x="800" y="620" width="120" height="60" as="geometry" />
        </mxCell>
        <mxCell id="P_v-eNA2GRJJsNugdSsN-27" style="edgeStyle=orthogonalEdgeStyle;rounded=0;orthogonalLoop=1;jettySize=auto;html=1;exitX=0.875;exitY=0.5;exitDx=0;exitDy=0;exitPerimeter=0;endArrow=none;endFill=0;startArrow=classic;startFill=1;" parent="1" source="P_v-eNA2GRJJsNugdSsN-25" target="P_v-eNA2GRJJsNugdSsN-26" edge="1">
          <mxGeometry relative="1" as="geometry" />
        </mxCell>
        <mxCell id="P_v-eNA2GRJJsNugdSsN-30" style="edgeStyle=orthogonalEdgeStyle;rounded=0;orthogonalLoop=1;jettySize=auto;html=1;exitX=0.88;exitY=0.25;exitDx=0;exitDy=0;exitPerimeter=0;dashed=1;" parent="1" source="P_v-eNA2GRJJsNugdSsN-25" target="P_v-eNA2GRJJsNugdSsN-29" edge="1">
          <mxGeometry relative="1" as="geometry" />
        </mxCell>
        <mxCell id="55i1PIQycsP7EGcLQVo4-2" value="" style="edgeStyle=orthogonalEdgeStyle;rounded=0;orthogonalLoop=1;jettySize=auto;html=1;" parent="1" source="P_v-eNA2GRJJsNugdSsN-25" target="55i1PIQycsP7EGcLQVo4-1" edge="1">
          <mxGeometry relative="1" as="geometry" />
        </mxCell>
        <mxCell id="P_v-eNA2GRJJsNugdSsN-25" value="Laravel" style="ellipse;shape=cloud;whiteSpace=wrap;html=1;" parent="1" vertex="1">
          <mxGeometry x="600" y="445" width="120" height="80" as="geometry" />
        </mxCell>
        <mxCell id="P_v-eNA2GRJJsNugdSsN-26" value="BDD&lt;div&gt;MariaDB&lt;/div&gt;" style="shape=cylinder3;whiteSpace=wrap;html=1;boundedLbl=1;backgroundOutline=1;size=15;" parent="1" vertex="1">
          <mxGeometry x="970" y="445" width="60" height="80" as="geometry" />
        </mxCell>
        <mxCell id="P_v-eNA2GRJJsNugdSsN-32" value="" style="edgeStyle=orthogonalEdgeStyle;rounded=0;orthogonalLoop=1;jettySize=auto;html=1;" parent="1" source="P_v-eNA2GRJJsNugdSsN-29" target="P_v-eNA2GRJJsNugdSsN-31" edge="1">
          <mxGeometry relative="1" as="geometry" />
        </mxCell>
        <mxCell id="P_v-eNA2GRJJsNugdSsN-29" value="Envoie des données à afficher sur la page en &quot;attente&quot;" style="rounded=0;whiteSpace=wrap;html=1;" parent="1" vertex="1">
          <mxGeometry x="800" y="290" width="120" height="60" as="geometry" />
        </mxCell>
        <mxCell id="P_v-eNA2GRJJsNugdSsN-31" value="Affichage sur l&#39;écran" style="rounded=1;whiteSpace=wrap;html=1;" parent="1" vertex="1">
          <mxGeometry x="1000" y="290" width="120" height="60" as="geometry" />
        </mxCell>
        <mxCell id="P_v-eNA2GRJJsNugdSsN-34" value="" style="edgeStyle=orthogonalEdgeStyle;rounded=0;orthogonalLoop=1;jettySize=auto;html=1;" parent="1" source="P_v-eNA2GRJJsNugdSsN-33" target="P_v-eNA2GRJJsNugdSsN-23" edge="1">
          <mxGeometry relative="1" as="geometry" />
        </mxCell>
        <mxCell id="P_v-eNA2GRJJsNugdSsN-33" value="Vendeur" style="shape=umlActor;verticalLabelPosition=bottom;verticalAlign=top;html=1;outlineConnect=0;" parent="1" vertex="1">
          <mxGeometry x="845" y="760" width="30" height="60" as="geometry" />
        </mxCell>
        <mxCell id="P_v-eNA2GRJJsNugdSsN-36" value="" style="edgeStyle=orthogonalEdgeStyle;rounded=0;orthogonalLoop=1;jettySize=auto;html=1;" parent="1" source="P_v-eNA2GRJJsNugdSsN-35" target="P_v-eNA2GRJJsNugdSsN-23" edge="1">
          <mxGeometry relative="1" as="geometry" />
        </mxCell>
        <mxCell id="P_v-eNA2GRJJsNugdSsN-35" value="Admin" style="shape=umlActor;verticalLabelPosition=bottom;verticalAlign=top;html=1;outlineConnect=0;" parent="1" vertex="1">
          <mxGeometry x="1000" y="620" width="30" height="60" as="geometry" />
        </mxCell>
        <mxCell id="55i1PIQycsP7EGcLQVo4-3" style="edgeStyle=orthogonalEdgeStyle;rounded=0;orthogonalLoop=1;jettySize=auto;html=1;exitX=0;exitY=0.5;exitDx=0;exitDy=0;exitPerimeter=0;" parent="1" source="55i1PIQycsP7EGcLQVo4-1" target="P_v-eNA2GRJJsNugdSsN-15" edge="1">
          <mxGeometry relative="1" as="geometry" />
        </mxCell>
        <mxCell id="55i1PIQycsP7EGcLQVo4-1" value="Queue&lt;div&gt;Redis&lt;/div&gt;" style="shape=cylinder3;whiteSpace=wrap;html=1;boundedLbl=1;backgroundOutline=1;size=15;" parent="1" vertex="1">
          <mxGeometry x="630" y="610" width="60" height="80" as="geometry" />
        </mxCell>
      </root>
    </mxGraphModel>
  </diagram>
</mxfile>
